:SAMPLES-PER-SECOND 30
:FULLY-SPECIFIED
:DEGREES
33
root  6.78959 40.2518 3.34975 1.00047 -82.8094 -4.70393
RightUpLeg  0.446311 -8.29493 -6.65623
RightLeg  1.92154 -12.4091 -0.431363
RightFoot  4.85747 -1.35431 9.72924
RightToes  1.16414e-010 0 -3.6325e-017
Spine  4.32317 -2.2412 1.72124
Spine1  10.4834 -3.43366 4.30459
HEad  -1.53482 -16.2171 2.60522
LeftShoulder1  1.57557 -6.27165 -8.67193
LeftArm  52.4191 29.0771 -41.9561
LeftForeArm  97.7116 -79.1903 -47.029
LeftHand  -1.26499 1.98658 41.8455
RightShoulder  1.47424 3.29111 14.9187
RightArm  52.9372 -17.5144 27.3786
RightForeArm  158.65 80.9322 115.37
RightHand  -4.05343 11.3861 -27.8429
LeftUpLeg  1.35784 8.63046 9.23102
LeftLeg  6.16777 6.43071 2.68757
LeftFoot  -1.12746 1.1369 -12.6062
LeftToes  7.09373e-011 9.9627e-011 8.96859e-012
34
root  6.81281 40.2895 3.80863 -2.86603 -83.3695 -1.02357
RightUpLeg  0.871487 -8.4224 -7.73816
RightLeg  1.26948 -11.5483 -0.6198
RightFoot  5.52864 -1.48028 10.213
RightToes  1.16414e-010 0 -3.6325e-017
Spine  4.39918 -2.17073 1.39591
Spine1  10.5809 -2.9786 2.64336
HEad  -2.93617 -16.062 2.73
LeftShoulder1  1.57272 -6.33518 -8.52288
LeftArm  52.7699 28.72 -41.4381
LeftForeArm  98.5931 -79.4499 -48.8785
LeftHand  -1.26837 1.98429 41.924
RightShoulder  1.47464 3.30363 14.8817
RightArm  52.8378 -18.3836 27.7676
RightForeArm  163.29 80.7945 118.1
RightHand  -4.40445 11.1187 -30.5779
LeftUpLeg  2.1003 9.0311 8.30232
LeftLeg  5.64453 6.99738 2.27825
LeftFoot  -1.29599 1.07303 -12.0879
LeftToes  7.09373e-011 9.9627e-011 8.96859e-012
35
root  6.88203 40.3036 4.29454 -7.4921 -83.9532 3.45317
RightUpLeg  1.029 -8.60595 -8.8617
RightLeg  0.850525 -10.6186 -0.869655
RightFoot  6.19568 -1.62666 10.7938
RightToes  1.16414e-010 0 -3.6325e-017
Spine  4.57498 -2.08433 1.11898
Spine1  10.7228 -2.54959 1.15817
HEad  -4.35542 -15.763 2.44911
LeftShoulder1  1.56344 -6.28498 -8.50868
LeftArm  53.3641 28.0987 -40.6742
LeftForeArm  99.4217 -79.6971 -50.8753
LeftHand  -1.21511 2.14541 42.1628
RightShoulder  1.45851 3.35468 14.4445
RightArm  53.0846 -19.1979 27.9017
RightForeArm  168.21 80.5771 121.282
RightHand  -4.7661 10.7855 -33.5634
LeftUpLeg  2.49554 8.67382 6.96245
LeftLeg  5.53065 8.22113 2.33603
LeftFoot  -1.46146 1.00334 -11.4774
LeftToes  7.09373e-011 9.9627e-011 8.96859e-012
36
root  7.00845 40.2769 4.78119 -13.0894 -84.5935 9.15769
RightUpLeg  0.46094 -8.82396 -9.94914
RightLeg  1.03612 -9.60309 -1.21013
RightFoot  6.6588 -1.74752 11.2908
RightToes  1.16414e-010 0 -3.6325e-017
Spine  4.72454 -1.92517 0.668736
Spine1  10.8015 -2.12914 0.0329773
HEad  -5.69034 -15.3134 1.99304
LeftShoulder1  1.54494 -6.16803 -8.51046
LeftArm  53.9729 27.3997 -39.9921
LeftForeArm  100.406 -79.9536 -53.2029
LeftHand  -1.13152 2.38057 42.3563
RightShoulder  1.43264 3.37637 13.955
RightArm  53.6809 -19.6372 27.8532
RightForeArm  171.36 80.4349 123.179
RightHand  -5.08091 10.6283 -35.953
LeftUpLeg  2.14785 8.14852 5.49753
LeftLeg  6.17643 9.50575 2.52268
LeftFoot  -1.9463 0.904228 -10.8368
LeftToes  7.09373e-011 9.9627e-011 8.96859e-012
37
root  7.15214 40.2199 5.22285 -21.2737 -85.4003 17.5508
RightUpLeg  -0.621651 -8.892 -10.8787
RightLeg  1.76304 -8.47113 -1.67807
RightFoot  6.88391 -1.84332 11.7508
RightToes  1.16414e-010 0 -3.6325e-017
Spine  4.8003 -1.63108 -0.117659
Spine1  11.0081 -1.63727 -0.931649
HEad  -6.98736 -14.7498 1.63122
LeftShoulder1  1.52126 -6.08766 -8.3841
LeftArm  54.2702 26.8211 -39.6725
LeftForeArm  101.811 -80.2213 -55.8759
LeftHand  -1.03447 2.64386 42.4827
RightShoulder  1.41521 3.37314 13.686
RightArm  54.4034 -19.5833 27.8892
RightForeArm  171.428 80.5322 122.516
RightHand  -5.241 10.6492 -36.9568
LeftUpLeg  1.52445 7.93948 4.25745
LeftLeg  7.16884 10.8306 2.59448
LeftFoot  -2.67273 0.801479 -10.3448
LeftToes  7.09373e-011 9.9627e-011 8.96859e-012
38
root  7.29121 40.1459 5.60913 -36.0358 -86.5075 32.4765
RightUpLeg  -2.02385 -8.64432 -11.5716
RightLeg  2.85506 -7.13639 -2.25724
RightFoot  7.02694 -1.95291 12.3359
RightToes  1.16414e-010 0 -3.6325e-017
Spine  4.87967 -1.14749 -1.12114
Spine1  11.3583 -0.982613 -1.78474
HEad  -8.23427 -14.0616 1.38766
LeftShoulder1  1.50541 -6.0536 -8.26133
LeftArm  54.1185 26.3976 -39.5579
LeftForeArm  103.862 -80.4921 -58.7757
LeftHand  -0.984496 2.77916 42.554
RightShoulder  1.41872 3.41172 13.6149
RightArm  55.0265 -19.1538 28.2827
RightForeArm  168.108 80.9002 118.749
RightHand  -5.22675 10.7178 -36.7163
LeftUpLeg  1.03653 8.09568 3.32812
LeftLeg  8.14159 12.3234 2.52155
LeftFoot  -3.38481 0.726318 -10.1354
LeftToes  7.09373e-011 9.9627e-011 8.96859e-012
39
root  7.43772 40.0497 5.99101 -59.7007 -87.1876 56.2416
RightUpLeg  -3.57483 -7.99186 -12.3246
RightLeg  4.31345 -6.22488 -2.64431
RightFoot  7.13111 -2.05911 12.9163
RightToes  1.16414e-010 0 -3.6325e-017
Spine  5.09862 -0.81073 -2.04215
Spine1  11.6171 -0.445344 -2.77323
HEad  -9.43215 -13.2338 1.14369
LeftShoulder1  1.50206 -5.99713 -8.33195
LeftArm  53.6958 26.0519 -39.3323
LeftForeArm  106.33 -80.7386 -61.6247
LeftHand  -1.0345 2.64338 42.4795
RightShoulder  1.44007 3.5125 13.625
RightArm  55.4987 -18.5442 29.0182
RightForeArm  162.007 81.371 112.376
RightHand  -5.14692 10.7385 -36.1538
LeftUpLeg  0.461982 8.20412 2.38669
LeftLeg  9.31155 13.6495 2.59512
LeftFoot  -4.12086 0.659751 -10.0465
LeftToes  7.09373e-011 9.9627e-011 8.96859e-012
40
root  7.58343 39.956 6.35378 -90.0208 -87.2549 86.6988
RightUpLeg  -5.20558 -6.7962 -13.0687
RightLeg  5.79903 -5.99983 -2.80227
RightFoot  7.39277 -2.14267 13.2461
RightToes  1.16414e-010 0 -3.6325e-017
Spine  5.2531 -0.54375 -2.95819
Spine1  11.8619 0.00228885 -3.62918
HEad  -10.7316 -12.313 0.835781
LeftShoulder1  1.50188 -5.87716 -8.57133
LeftArm  53.2739 25.6913 -38.9931
LeftForeArm  108.073 -80.8914 -63.6249
LeftHand  -1.13158 2.37743 42.3158
RightShoulder  1.45918 3.59785 13.6493
RightArm  55.874 -17.8513 29.8119
RightForeArm  154.43 81.7339 104.871
RightHand  -5.10334 10.7056 -35.9379
LeftUpLeg  -0.121107 8.28216 1.48988
LeftLeg  10.3264 14.9588 2.724
LeftFoot  -4.80918 0.590757 -9.82961
LeftToes  7.09373e-011 9.9627e-011 8.96859e-012
41
root  7.70457 39.8952 6.68869 -116.425 -86.8935 113.317
RightUpLeg  -6.65913 -5.59409 -13.5289
RightLeg  6.80559 -6.29079 -2.76804
RightFoot  8.1666 -2.27417 13.5007
RightToes  1.16414e-010 0 -3.6325e-017
Spine  5.08728 -0.331478 -3.59997
Spine1  12.3432 0.371736 -4.24455
HEad  -12.2166 -11.4003 0.475801
LeftShoulder1  1.50285 -5.7344 -8.83794
LeftArm  52.9658 25.275 -38.7557
LeftForeArm  108.1 -80.9091 -64.0896
LeftHand  -1.17041 2.27341 42.2904
RightShoulder  1.45402 3.57989 13.6263
RightArm  56.2059 -17.1042 30.4133
RightForeArm  146.921 81.9116 97.9052
RightHand  -5.10202 10.6664 -36.0104
LeftUpLeg  -0.638912 8.37069 0.887928
LeftLeg  10.9969 16.3015 2.92641
LeftFoot  -5.34161 0.533554 -9.55653
LeftToes  7.09373e-011 9.9627e-011 8.96859e-012
